# xmcd CD database file
#
# Track frame offsets:
#	150
#	14937
#	29730
#	42056
#	55998
#	76021
#	103049
#	115653
#	127434
#	142140
#	155574
#	170022
#	182562
#	195512
#	208898
#	221411
#	234922
#	249340
#	263595
#	276539
#	289517
#	302600
#
# Disc length: 4207 seconds
#
# Revision: 0
# Processed by: cddbd v1.5.2PL0 Copyright (c) Steve Scherf et al.
# Submitted via: CDex 1.51
#
DISCID=49106d16
DTITLE=Rolf Ericson - Miles Away 1950-52
DYEAR=1952
DGENRE=Jazz
TTITLE0=Miles away
TTITLE1=Conservation
TTITLE2=Perdido
TTITLE3=How high the moon
TTITLE4=Perdido
TTITLE5=Fine and dandy
TTITLE6=The daring young Swedes in the flying trapeze
TTITLE7=A Swedish butterfly
TTITLE8=Don't take your love from me
TTITLE9=This is a lovely way to spend an evening
TTITLE10=The way you look tonight
TTITLE11=The world is waiting for the sunrise
TTITLE12=Easy to love
TTITLE13=Day by day
TTITLE14=The cool pool
TTITLE15=Tickle toe
TTITLE16=Almost like being in love
TTITLE17=Almost like being in love
TTITLE18=Westbound
TTITLE19=Kief
TTITLE20=So what
TTITLE21=So what
EXTD=YEAR: 1952
EXTT0=
EXTT1=
EXTT2=
EXTT3=
EXTT4=
EXTT5=
EXTT6=
EXTT7=
EXTT8=
EXTT9=
EXTT10=
EXTT11=
EXTT12=
EXTT13=
EXTT14=
EXTT15=
EXTT16=
EXTT17=
EXTT18=
EXTT19=
EXTT20=
EXTT21=
PLAYORDER=
